<svg width="33" height="32" viewBox="0 0 33 32" fill="none" xmlns="http://www.w3.org/2000/svg">
<g clip-path="url(#clip0_1626_5751)">
<rect x="0.666504" width="32" height="32" rx="16" fill="white"/>
<path d="M8.6665 16C8.6665 24.8366 11.6665 30.5 11.6665 30.5C2.82995 30.5 0.666504 24.8366 0.666504 16C0.666504 7.16344 7.82995 0 16.6665 0C21.7193 0 33.4544 2.84215 29.6665 6.5C19.1665 4.5 8.6665 12.2162 8.6665 16Z" fill="#1A4F92"/>
<path fill-rule="evenodd" clip-rule="evenodd" d="M25.9109 31.9993H32.4618C33.704 25.4109 29.2322 18.3637 21.9126 16.8438C23.4072 17.2422 30.0072 20.2024 28.3503 27.7214C27.9818 29.3937 27.1043 30.8322 25.9109 31.9993Z" fill="#1A4F92"/>
<path fill-rule="evenodd" clip-rule="evenodd" d="M6.26807 5.60156V31.9987L9.05939 31.9998C10.7531 31.9957 11.145 32.0345 12.0708 31.8881C16.0639 31.3013 19.7154 28.0254 20.1096 25.1305C20.7003 21.7026 18.8498 18.6991 15.2977 17.9534C15.2345 17.9401 15.1656 17.9199 15.0919 17.8946C14.9655 17.8962 13.2339 17.9125 11.8995 17.5534C11.883 17.5674 11.1331 18.1654 11.4409 19.3122C11.4409 19.3122 9.66185 17.441 10.7925 14.9261C10.7925 14.9261 11.3402 13.7399 13.1999 12.5269C13.2142 12.5096 13.2285 12.4927 13.2427 12.4755C13.7406 11.8803 14.9337 10.8307 16.665 10.0019C17.5485 9.60131 19.065 9.02719 20.7631 8.88046C28.5088 8.15421 32.668 14.1281 32.668 14.1281V5.60156H6.26807Z" fill="#1A4F92"/>
<path fill-rule="evenodd" clip-rule="evenodd" d="M25.35 12.0813C28.6819 12.4455 31.5855 14.4425 32.6676 15.5198L32.6667 17.8198C32.6667 17.8198 28.8805 12.4891 21.7839 12.7012C21.8516 12.9549 21.8625 13.2242 21.8056 13.4941C21.5958 14.4873 20.5459 15.1125 19.4612 14.8901C18.6504 14.724 18.05 14.1312 17.8858 13.428C16.7693 13.8214 16.0454 14.2317 16.0454 14.2308C18.5096 12.5399 21.6341 11.5932 25.35 12.0813Z" fill="#1A4F92"/>
</g>
<defs>
<clipPath id="clip0_1626_5751">
<rect x="0.666504" width="32" height="32" rx="16" fill="white"/>
</clipPath>
</defs>
</svg>
