<svg width="24" height="24" viewBox="0 0 24 24" fill="none" xmlns="http://www.w3.org/2000/svg">
<path fill-rule="evenodd" clip-rule="evenodd" d="M11.05 21.025L9.03178 18.3333H5.66667C3.91761 18.3333 2.5 16.9157 2.5 15.1667V5.66667C2.5 3.91761 3.91761 2.5 5.66667 2.5H18.3333C20.0824 2.5 21.5 3.91761 21.5 5.66667V15.1667C21.5 16.9157 20.0824 18.3333 18.3333 18.3333H14.9682L12.95 21.025C12.475 21.6583 11.525 21.6583 11.05 21.025ZM14.0225 6.72223C13.0292 6.72223 12.3768 7.2004 12 7.62578C11.6232 7.2004 10.9708 6.72223 9.97756 6.72223C8.23906 6.72223 7.07373 8.29395 7.07373 9.75906C7.07373 12.8202 11.0257 15.1667 12 15.1667C12.9743 15.1667 16.9263 12.8202 16.9263 9.75906C16.9263 8.29395 15.761 6.72223 14.0225 6.72223Z" fill="#050708"/>
</svg>
