<svg width="16" height="15" viewBox="0 0 16 15" fill="none" xmlns="http://www.w3.org/2000/svg">
<path d="M5.72445 7.97233C7.83318 7.97233 9.54265 6.26286 9.54265 4.15414C9.54265 2.0454 7.83318 0.335938 5.72445 0.335938C3.61571 0.335938 1.90625 2.0454 1.90625 4.15414C1.90625 6.26286 3.61571 7.97233 5.72445 7.97233Z" fill="#142129"/>
<path d="M4.09093 8.60938C1.83157 8.60938 0 10.441 0 12.7003C0 13.604 0.732629 14.3367 1.63637 14.3367H9.81824C10.7219 14.3367 11.4546 13.604 11.4546 12.7003C11.4546 10.441 9.623 8.60938 7.36365 8.60938H4.09093Z" fill="#142129"/>
<path d="M10.0783 6.795C9.96383 6.98299 10.049 7.23562 10.2655 7.27565C10.4517 7.31014 10.6442 7.33241 10.8182 7.33241C12.5754 7.33241 14 5.90786 14 4.15058C14 2.39331 12.5754 0.96875 10.8182 0.96875C10.6442 0.96875 10.4517 0.991055 10.2655 1.02551C10.049 1.06556 9.96383 1.31819 10.0783 1.50614C10.5478 2.27688 10.8182 3.18215 10.8182 4.15058C10.8182 5.11901 10.5478 6.02429 10.0783 6.795Z" fill="#142129"/>
<path d="M12.5116 13.8079C12.4143 14.0442 12.5727 14.3367 12.8283 14.3367H13.639C14.5428 14.3367 15.2754 13.604 15.2754 12.7003C15.2754 10.441 13.4438 8.60938 11.1845 8.60938C11.0654 8.61237 11.0108 8.76318 11.0964 8.84604C12.1037 9.82114 12.7299 11.1876 12.7299 12.7003C12.7299 13.0924 12.6523 13.4665 12.5116 13.8079Z" fill="#142129"/>
</svg>
