<svg width="19" height="19" viewBox="0 0 19 19" fill="none" xmlns="http://www.w3.org/2000/svg">
<path fill-rule="evenodd" clip-rule="evenodd" d="M8.14736 10.4407C6.97477 9.26806 6.09081 7.95515 5.50351 6.6232C5.37923 6.34158 5.4524 6.01185 5.66988 5.79437L6.49069 4.97355C7.16318 4.30106 7.16318 3.34995 6.57588 2.76265L5.39928 1.58705C4.61654 0.804317 3.34774 0.804317 2.565 1.58705L1.91155 2.23949C1.16891 2.98214 0.859225 4.05351 1.05967 5.11586C1.55476 7.73466 3.07613 10.602 5.53057 13.0564C7.985 15.5109 10.8524 17.0323 13.4712 17.5273C14.5335 17.7278 15.6049 17.4181 16.3475 16.6755L17 16.023C17.7827 15.2403 17.7827 13.9715 17 13.1887L15.8244 12.0131C15.2371 11.4258 14.285 11.4258 13.6987 12.0131L12.7937 12.9191C12.5762 13.1366 12.2464 13.2098 11.9648 13.0855C10.6329 12.4972 9.31996 11.6123 8.14736 10.4407Z" fill="#050708" stroke="#050708" stroke-width="1.5" stroke-linecap="round" stroke-linejoin="round"/>
</svg>
