<svg width="21" height="21" viewBox="0 0 21 21" fill="none" xmlns="http://www.w3.org/2000/svg">
<mask id="path-1-inside-1_2228_6351" fill="white">
<path d="M17.1033 8.23125L6.37207 2.03125C6.06532 1.84976 5.71598 1.75273 5.35957 1.75C4.7993 1.75 4.26198 1.97257 3.86581 2.36874C3.46964 2.76491 3.24707 3.30223 3.24707 3.8625V17.1687C3.24714 17.5405 3.34681 17.9055 3.53571 18.2258C3.72461 18.546 3.99585 18.8098 4.32122 18.9897C4.64659 19.1696 5.01421 19.2591 5.38587 19.2488C5.75753 19.2385 6.11964 19.1289 6.43457 18.9312L17.1783 12.1437C17.5124 11.9347 17.7866 11.6426 17.9742 11.2961C18.1618 10.9495 18.2565 10.5603 18.2489 10.1663C18.2414 9.77224 18.1319 9.3869 17.9311 9.04779C17.7303 8.70868 17.4451 8.42736 17.1033 8.23125Z"/>
</mask>
<path d="M17.1033 8.23125L6.37207 2.03125C6.06532 1.84976 5.71598 1.75273 5.35957 1.75C4.7993 1.75 4.26198 1.97257 3.86581 2.36874C3.46964 2.76491 3.24707 3.30223 3.24707 3.8625V17.1687C3.24714 17.5405 3.34681 17.9055 3.53571 18.2258C3.72461 18.546 3.99585 18.8098 4.32122 18.9897C4.64659 19.1696 5.01421 19.2591 5.38587 19.2488C5.75753 19.2385 6.11964 19.1289 6.43457 18.9312L17.1783 12.1437C17.5124 11.9347 17.7866 11.6426 17.9742 11.2961C18.1618 10.9495 18.2565 10.5603 18.2489 10.1663C18.2414 9.77224 18.1319 9.3869 17.9311 9.04779C17.7303 8.70868 17.4451 8.42736 17.1033 8.23125Z" fill="#191B1D"/>
<path d="M17.1033 8.23125L9.09915 22.0852L9.12017 22.0974L9.14122 22.1095L17.1033 8.23125ZM6.37207 2.03125L-1.77503 15.8017L-1.70378 15.8438L-1.6321 15.8852L6.37207 2.03125ZM5.35957 1.75L5.4819 -14.2495L5.42074 -14.25H5.35957V1.75ZM3.24707 3.8625H-12.7529H3.24707ZM3.24707 17.1687H-12.7529V17.1718L3.24707 17.1687ZM6.43457 18.9312L14.9391 32.4839L14.9597 32.4709L14.9802 32.458L6.43457 18.9312ZM17.1783 12.1437L8.69019 -1.41913L8.66139 -1.4011L8.63266 -1.38295L17.1783 12.1437ZM25.1075 -5.62275L14.3762 -11.8227L-1.6321 15.8852L9.09915 22.0852L25.1075 -5.62275ZM14.5192 -11.7392C11.7812 -13.3591 8.66312 -14.2252 5.4819 -14.2495L5.23724 17.7495C2.76885 17.7307 0.349454 17.0586 -1.77503 15.8017L14.5192 -11.7392ZM5.35957 -14.25C0.55584 -14.25 -4.05115 -12.3417 -7.4479 -8.94497L15.1795 13.6824C12.5751 16.2869 9.04276 17.75 5.35957 17.75V-14.25ZM-7.4479 -8.94497C-10.8447 -5.54822 -12.7529 -0.941234 -12.7529 3.8625H19.2471C19.2471 7.54569 17.7839 11.078 15.1795 13.6824L-7.4479 -8.94497ZM-12.7529 3.8625V17.1687H19.2471V3.8625H-12.7529ZM-12.7529 17.1718C-12.7523 20.4019 -11.8864 23.5728 -10.2453 26.3549L17.3167 10.0966C18.58 12.2383 19.2466 14.6792 19.2471 17.1657L-12.7529 17.1718ZM-10.2453 26.3549C-8.60422 29.137 -6.2478 31.4287 -3.42108 32.9917L12.0635 4.98768C14.2395 6.19087 16.0534 7.95499 17.3167 10.0966L-10.2453 26.3549ZM-3.42108 32.9917C-0.594399 34.5547 2.59941 35.332 5.82829 35.2427L4.94345 3.25492C7.42902 3.18617 9.88757 3.78451 12.0635 4.98768L-3.42108 32.9917ZM5.82829 35.2427C9.05715 35.1534 12.2031 34.2007 14.9391 32.4839L-2.06993 5.37863C0.036181 4.05701 2.4579 3.32368 4.94345 3.25492L5.82829 35.2427ZM14.9802 32.458L25.724 25.6705L8.63266 -1.38295L-2.11109 5.40455L14.9802 32.458ZM25.6665 25.7066C28.3435 24.0312 30.5409 21.6909 32.0445 18.9137L3.90396 3.67848C5.03229 1.59437 6.68127 -0.161873 8.69019 -1.41913L25.6665 25.7066ZM32.0445 18.9137C33.548 16.1365 34.3065 13.0171 34.246 9.8596L2.25187 10.4729C2.20645 8.10343 2.77563 5.76258 3.90396 3.67848L32.0445 18.9137ZM34.246 9.8596C34.1855 6.70205 33.308 3.61406 31.6991 0.896547L4.16313 17.199C2.95579 15.1597 2.29729 12.8424 2.25187 10.4729L34.246 9.8596ZM31.6991 0.896547C30.0902 -1.82098 27.8047 -4.07539 25.0654 -5.64697L9.14122 22.1095C7.08555 20.9301 5.37049 19.2383 4.16313 17.199L31.6991 0.896547Z" fill="#050708" mask="url(#path-1-inside-1_2228_6351)"/>
</svg>
