<svg width="30" height="27" viewBox="0 0 30 27" fill="none" xmlns="http://www.w3.org/2000/svg">
<path fill-rule="evenodd" clip-rule="evenodd" d="M9.75248 0.439179C8.88605 0.762545 7.53389 1.4729 6.55543 2.11866C5.38479 2.89126 3.7764 4.36479 2.97542 5.39852C1.53672 7.25518 0.784081 9.14361 0.351602 11.9822C0.060743 13.891 0.0400595 14.3756 0.0132236 19.9159C-0.0153115 25.8082 -0.0413271 25.4384 0.434219 25.9052C0.893065 26.3558 0.621601 26.3355 6.21061 26.3355C11.6087 26.3355 11.4197 26.3463 11.8657 26.0123C11.9796 25.9271 12.1439 25.7384 12.231 25.5931L12.3892 25.3288L12.4051 20.3086L12.421 15.2884L12.2944 14.9994C12.1457 14.6602 11.7377 14.2821 11.4296 14.198C11.3033 14.1636 10.2506 14.1401 8.82963 14.1399L6.44194 14.1395V13.7778C6.44194 12.9542 6.68112 11.5564 6.98053 10.6303C7.37856 9.39909 7.98588 8.40638 8.8656 7.54904C9.58332 6.84955 10.4144 6.29406 11.5827 5.73281C12.437 5.32246 12.5651 5.22064 12.7999 4.76553C12.862 4.64501 12.9035 4.4302 12.9055 4.21786C12.9084 3.91049 12.8694 3.78566 12.5808 3.17925C11.4827 0.871734 11.3929 0.725325 10.9341 0.495557C10.5977 0.327056 10.1147 0.304045 9.75248 0.439179ZM27.0793 0.397011C26.7546 0.455862 25.2277 1.18946 24.4009 1.68386C21.8925 3.18379 19.9345 5.19331 18.7887 7.44365C17.9508 9.08913 17.5358 10.7513 17.2436 13.6327C17.1659 14.3984 17.1436 15.5433 17.1226 19.858C17.0936 25.8149 17.0674 25.4377 17.5436 25.9052C18.0024 26.3557 17.7313 26.3355 23.3169 26.3355C28.7612 26.3355 28.5704 26.3471 29.0131 25.9889C29.1293 25.8949 29.2926 25.6834 29.3761 25.5189L29.5278 25.2199L29.5265 20.2406C29.5252 15.3557 29.523 15.2564 29.4059 15.0025C29.2687 14.7049 29.0595 14.4731 28.7661 14.2937C28.5658 14.1712 28.5028 14.1676 26.0423 14.1395L23.5236 14.1108L23.5415 13.6505C23.5877 12.4618 23.88 11.0472 24.2859 10.0478C24.7033 9.02021 25.2031 8.27067 25.9617 7.535C26.652 6.86549 27.3569 6.38841 28.4632 5.84189C29.5238 5.31798 29.8203 5.07653 29.9403 4.63886C30.0824 4.12081 30.0076 3.85981 29.3083 2.43253C28.918 1.636 28.5716 1.00882 28.438 0.856719C28.0987 0.470302 27.602 0.302262 27.0793 0.397011Z" fill="#FFCE32"/>
</svg>
