<svg width="30" height="27" viewBox="0 0 30 27" fill="none" xmlns="http://www.w3.org/2000/svg">
<path fill-rule="evenodd" clip-rule="evenodd" d="M20.2475 0.423554C21.1139 0.74692 22.4661 1.45728 23.4446 2.10303C24.6152 2.87564 26.2236 4.34917 27.0246 5.38289C28.4633 7.23956 29.2159 9.12798 29.6484 11.9666C29.9393 13.8754 29.9599 14.36 29.9868 19.9003C30.0153 25.7926 30.0413 25.4227 29.5658 25.8896C29.1069 26.3401 29.3784 26.3199 23.7894 26.3199C18.3913 26.3199 18.5803 26.3307 18.1343 25.9967C18.0204 25.9114 17.8561 25.7228 17.769 25.5774L17.6108 25.3132L17.5949 20.2929L17.579 15.2727L17.7056 14.9838C17.8543 14.6445 18.2623 14.2665 18.5704 14.1824C18.6967 14.148 19.7494 14.1244 21.1704 14.1243L23.5581 14.1239V13.7622C23.5581 12.9385 23.3189 11.5408 23.0195 10.6147C22.6214 9.38346 22.0141 8.39076 21.1344 7.53341C20.4167 6.83393 19.5856 6.27843 18.4173 5.71719C17.563 5.30684 17.4349 5.20501 17.2001 4.74991C17.138 4.62939 17.0965 4.41458 17.0945 4.20224C17.0916 3.89487 17.1306 3.77003 17.4192 3.16363C18.5173 0.856109 18.6071 0.7097 19.0659 0.479932C19.4023 0.311431 19.8853 0.28842 20.2475 0.423554ZM2.92069 0.381386C3.24542 0.440237 4.77231 1.17384 5.59912 1.66824C8.10751 3.16817 10.0655 5.17769 11.2113 7.42802C12.0492 9.0735 12.4642 10.7357 12.7564 13.6171C12.8341 14.3828 12.8564 15.5277 12.8774 19.8423C12.9064 25.7993 12.9326 25.4221 12.4564 25.8896C11.9976 26.3401 12.2687 26.3199 6.6831 26.3199C1.23876 26.3199 1.4296 26.3315 0.986866 25.9732C0.870735 25.8792 0.707434 25.6678 0.623938 25.5033L0.472181 25.2043L0.473469 20.225C0.474758 15.3401 0.477045 15.2408 0.594114 14.9868C0.731283 14.6892 0.940519 14.4575 1.2339 14.2781C1.43423 14.1555 1.49716 14.152 3.95768 14.1239L6.47638 14.0951L6.45851 13.6349C6.41228 12.4462 6.12002 11.0315 5.71408 10.0322C5.29672 9.00458 4.79686 8.25505 4.03831 7.51938C3.34796 6.84986 2.64313 6.37278 1.53677 5.82626C0.476166 5.30235 0.179739 5.06091 0.0596809 4.62323C-0.0824089 4.10519 -0.00758171 3.84418 0.691732 2.41691C1.08203 1.62037 1.42837 0.993199 1.56196 0.841094C1.90134 0.454677 2.39798 0.286637 2.92069 0.381386Z" fill="#FFCE32"/>
</svg>
