<svg width="200" height="38" viewBox="0 0 200 38" fill="none" xmlns="http://www.w3.org/2000/svg">
<path d="M37.3601 18.628C37.3601 11.73 33.5612 5.39846 27.4629 2.13273V7.66448C33.4945 12.4964 34.4943 21.3272 29.6623 27.3589C24.8303 33.3905 15.9995 34.3902 9.96792 29.5582C3.93631 24.7263 2.9366 15.8955 7.76855 9.86385C8.4017 9.06408 9.1015 8.36428 9.90127 7.73113V2.13273C0.803871 6.99801 -2.66181 18.2948 2.20347 27.4255C7.06875 36.5562 18.3655 39.9886 27.4963 35.1233C33.5612 31.8909 37.3601 25.5261 37.3601 18.628ZM29.629 18.628C29.629 15.329 28.1294 12.1965 25.5301 10.1304C24.8303 9.59726 24.3971 8.76416 24.3971 7.89774V0.833096C23.0642 0.399886 21.6646 0.133295 20.265 0V10.0971C20.165 11.2968 20.6982 12.4964 21.6646 13.1962C24.6637 14.8957 25.7301 18.6947 24.0639 21.6938C22.3644 24.6929 18.5655 25.7593 15.5663 24.0931C12.5672 22.3936 11.5008 18.5947 13.167 15.5955C13.7335 14.5958 14.5666 13.7627 15.5663 13.1962C16.5994 12.4964 17.1659 11.3301 17.0992 10.0971V0C15.6996 0.0999715 14.3333 0.366565 13.0004 0.799775V7.86442C13.0004 8.76417 12.5672 9.59726 11.8341 10.0971C7.1354 13.8627 6.40227 20.7274 10.1679 25.4261C13.9335 30.1247 20.7982 30.8579 25.4968 27.0923C28.0628 25.0262 29.5623 21.8938 29.5623 18.5947H29.629V18.628Z" fill="#EC1E26"/>
<path d="M196.783 14.3671L199.615 11.5346C197.649 9.56848 194.917 8.50212 192.117 8.63542C188.152 8.63542 184.919 10.7348 184.919 14.2338C184.919 17.7328 187.385 19.3324 191.517 20.3987C195.183 21.3318 195.65 21.865 195.65 22.9313C195.65 23.9977 194.583 24.6308 192.384 24.6308C190.418 24.5975 188.518 23.8644 187.085 22.5314L184.253 25.364C186.419 27.4634 189.351 28.6297 192.384 28.5631C196.649 28.5631 199.948 26.6636 199.948 22.898C199.948 19.3657 197.716 17.8661 193.55 16.7664C190.151 15.8667 189.085 15.4668 189.085 14.2338C189.085 13.0008 190.185 12.501 192.084 12.501C193.817 12.4343 195.516 13.1008 196.749 14.3338L196.783 14.3671ZM179.188 28.3631H183.553L175.289 8.80204H171.257L162.992 28.3298H167.358L168.891 24.6642H177.655L179.188 28.3631ZM176.122 20.8986H170.457L173.289 13.9339L176.122 20.8986ZM162.626 18.6326C162.626 18.1327 162.592 17.6328 162.526 17.0997H152.962V20.8653H157.96C157.427 23.2646 155.528 24.6975 152.662 24.6975C149.396 24.6975 146.997 22.0982 146.997 18.6326C146.83 15.5001 149.196 12.8342 152.329 12.6676C152.429 12.6676 152.562 12.6676 152.662 12.6676C154.528 12.6009 156.394 13.2674 157.76 14.5671L160.66 11.6679C158.527 9.6018 155.628 8.50212 152.662 8.66874C147.23 8.56877 142.765 12.8675 142.665 18.2993C142.665 18.4326 142.665 18.5659 142.665 18.6992C142.531 24.0977 146.83 28.5964 152.229 28.7297C152.362 28.7297 152.529 28.7297 152.662 28.7297C158.96 28.7297 162.659 24.3643 162.659 18.6992V18.6326H162.626ZM139.032 28.5631C139.366 28.5631 139.732 28.5631 140.065 28.4964V24.8308C139.932 24.8308 139.832 24.8308 139.699 24.8308C138.366 24.8308 137.2 24.231 135.334 22.3648L134.6 21.5984C137.5 21.0319 139.566 18.4659 139.466 15.5334C139.466 11.168 136.267 8.93533 132.168 8.93533H123.304V28.3298H127.569V12.8675H131.835C133.834 12.8675 135.167 13.8006 135.167 15.7001C135.167 17.5995 133.834 18.5326 131.835 18.5326H129.902V22.4648L131.934 24.5642C135.367 28.2298 136.766 28.5297 139.066 28.5297L139.032 28.5631ZM104.576 28.3631H119.338V24.5975H108.808V20.4987H117.938V16.7331H108.808V12.7676H119.171V9.00198H104.609V28.3631H104.576ZM101.51 15.8667C101.51 11.8345 98.7439 8.96866 94.0786 8.96866H86.1475V28.3631H90.413V12.9009H93.7454C95.8448 12.9009 97.1777 13.9672 97.1777 15.8667C97.1777 17.7661 95.8448 18.8325 93.7454 18.8325H92.7457V22.7647H94.0786C98.7439 22.7647 101.51 19.9322 101.51 15.8667ZM81.7155 19.8989V8.93533H77.45V20.0655C77.45 23.1313 76.0504 24.7308 73.4512 24.7308C70.8519 24.7308 69.4523 23.098 69.4523 19.9322V8.93533H65.1869V20.0322C65.1869 25.7639 68.186 28.663 73.3845 28.663C78.583 28.663 81.7155 25.7972 81.7155 19.8989ZM51.0576 14.2338C51.0576 13.1341 52.1572 12.501 54.0567 12.501C55.7895 12.4343 57.4891 13.1008 58.722 14.3338L61.5546 11.5013C59.5885 9.53516 56.8559 8.4688 54.0567 8.60209C50.0912 8.60209 46.8588 10.7015 46.8588 14.2005C46.8588 17.6995 49.3247 19.299 53.4569 20.3654C57.1225 21.2985 57.589 21.8316 57.589 22.898C57.589 23.9644 56.5227 24.5975 54.3233 24.5975C52.3905 24.5642 50.5244 23.8311 49.0914 22.4981L46.2589 25.3307C48.425 27.4301 51.3575 28.5964 54.3899 28.5297C58.6554 28.5297 61.9544 26.6303 61.9544 22.8647C61.9544 19.3324 59.7218 17.8328 55.5563 16.7331C52.1906 15.8334 51.0909 15.4335 51.0909 14.2005L51.0576 14.2338Z" fill="white"/>
</svg>
