<svg width="176" height="34" viewBox="0 0 176 34" fill="none" xmlns="http://www.w3.org/2000/svg">
<path d="M33.0886 17.0016C33.0886 10.9547 29.7584 5.40429 24.4125 2.54147V7.39074C29.7 11.6265 30.5764 19.3678 26.3406 24.6553C22.1047 29.9427 14.3635 30.8191 9.076 26.5833C3.78855 22.3475 2.91218 14.6062 7.14798 9.31876C7.70302 8.61766 8.31648 8.0042 9.01758 7.44916V2.54147C1.04258 6.80649 -1.99551 16.7095 2.2695 24.7137C6.53452 32.7179 16.4375 35.7268 24.4417 31.4618C29.7584 28.6282 33.0886 23.0486 33.0886 17.0016ZM26.3113 17.0016C26.3113 14.1096 24.9968 11.3636 22.7182 9.55246C22.1047 9.08506 21.725 8.35475 21.725 7.59522V1.40219C20.5565 1.02242 19.3296 0.788725 18.1026 0.671875V7.5368V9.52325C18.015 10.5749 18.4824 11.6265 19.3296 12.24C21.9587 13.7298 22.8935 17.0601 21.4329 19.6892C19.943 22.3183 16.6128 23.2531 13.9837 21.7925C11.3546 20.3026 10.4198 16.9724 11.8804 14.3433C12.377 13.4669 13.1073 12.7366 13.9837 12.24C14.8893 11.6265 15.3859 10.6041 15.3275 9.52325V0.671875C14.1005 0.759512 12.9028 0.993215 11.7343 1.37298V7.56601C11.7343 8.35475 11.3546 9.08506 10.7119 9.52325C6.59295 12.8243 5.95027 18.842 9.25128 22.961C12.5523 27.0799 18.57 27.7226 22.689 24.4216C24.9384 22.6104 26.2529 19.8645 26.2529 16.9724H26.3113V17.0016Z" fill="#EC1E26"/>
<path d="M172.841 13.2667L175.324 10.7836C173.601 9.06007 171.205 8.12527 168.752 8.24212C165.275 8.24212 162.442 10.0825 162.442 13.1498C162.442 16.2171 164.603 17.6193 168.226 18.5541C171.439 19.3721 171.848 19.8395 171.848 20.7743C171.848 21.7091 170.913 22.2641 168.985 22.2641C167.262 22.2349 165.597 21.5922 164.34 20.4237L161.857 22.9068C163.756 24.7471 166.327 25.7696 168.985 25.7112C172.724 25.7112 175.616 24.046 175.616 20.745C175.616 17.6485 173.659 16.334 170.008 15.37C167.028 14.5812 166.093 14.2307 166.093 13.1498C166.093 12.0689 167.057 11.6308 168.722 11.6308C170.241 11.5723 171.731 12.1566 172.812 13.2375L172.841 13.2667ZM157.417 25.5359H161.244L153.999 8.38818H150.465L143.22 25.5067H147.047L148.39 22.2933H156.073L157.417 25.5359ZM154.73 18.9923H149.763L152.247 12.8869L154.73 18.9923ZM142.899 17.0059C142.899 16.5677 142.869 16.1295 142.811 15.6621H134.427V18.9631H138.809C138.341 21.0664 136.676 22.3225 134.164 22.3225C131.301 22.3225 129.198 20.0439 129.198 17.0059C129.052 14.2599 131.126 11.9229 133.872 11.7768C133.96 11.7768 134.076 11.7768 134.164 11.7768C135.8 11.7184 137.436 12.3026 138.634 13.4419L141.175 10.9005C139.305 9.08928 136.764 8.12527 134.164 8.27133C129.402 8.18369 125.488 11.9521 125.4 16.7137C125.4 16.8306 125.4 16.9474 125.4 17.0643C125.283 21.7967 129.052 25.7404 133.784 25.8572C133.901 25.8572 134.047 25.8572 134.164 25.8572C139.685 25.8572 142.928 22.0304 142.928 17.0643V17.0059H142.899ZM122.216 25.7112C122.508 25.7112 122.83 25.7112 123.122 25.6527V22.4394C123.005 22.4394 122.917 22.4394 122.8 22.4394C121.632 22.4394 120.609 21.9135 118.974 20.2776L118.331 19.6058C120.872 19.1091 122.684 16.8598 122.596 14.2891C122.596 10.4623 119.791 8.50503 116.198 8.50503H108.428V25.5067H112.167V11.9521H115.906C117.659 11.9521 118.827 12.77 118.827 14.4352C118.827 16.1003 117.659 16.9182 115.906 16.9182H114.212V20.3653L115.994 22.2057C119.003 25.419 120.23 25.6819 122.245 25.6819L122.216 25.7112ZM92.0104 25.5359H104.952V22.2349H95.7204V18.6418H103.725V15.3407H95.7204V11.8645H104.805V8.56346H92.0397V25.5359H92.0104ZM89.3229 14.5812C89.3229 11.0465 86.8983 8.53425 82.8085 8.53425H75.856V25.5359H79.5952V11.9813H82.5164C84.3568 11.9813 85.5253 12.9161 85.5253 14.5812C85.5253 16.2463 84.3568 17.1811 82.5164 17.1811H81.64V20.6282H82.8085C86.8983 20.6282 89.3229 18.1451 89.3229 14.5812ZM71.9707 18.1159V8.50503H68.2315V18.262C68.2315 20.9495 67.0046 22.3517 64.726 22.3517C62.4475 22.3517 61.2205 20.9203 61.2205 18.1451V8.50503H57.4813V18.2328C57.4813 23.2573 60.1105 25.7988 64.6676 25.7988C69.2247 25.7988 71.9707 23.2865 71.9707 18.1159ZM45.0953 13.1498C45.0953 12.1858 46.0593 11.6308 47.7244 11.6308C49.2434 11.5723 50.7333 12.1566 51.8141 13.2375L54.2972 10.7544C52.5736 9.03086 50.1782 8.09606 47.7244 8.21291C44.2481 8.21291 41.4145 10.0533 41.4145 13.1206C41.4145 16.1879 43.5762 17.5901 47.1986 18.5249C50.4119 19.3428 50.8209 19.8102 50.8209 20.745C50.8209 21.6798 49.8861 22.2349 47.9581 22.2349C46.2638 22.2057 44.6279 21.563 43.3717 20.3945L40.8887 22.8776C42.7875 24.7179 45.3582 25.7404 48.0165 25.6819C51.7557 25.6819 54.6477 24.0168 54.6477 20.7158C54.6477 17.6193 52.6905 16.3048 49.0389 15.3407C46.0885 14.552 45.1245 14.2015 45.1245 13.1206L45.0953 13.1498Z" fill="#050708"/>
</svg>
