<svg width="24" height="25" viewBox="0 0 24 25" fill="none" xmlns="http://www.w3.org/2000/svg">
<g clip-path="url(#clip0_1663_6908)">
<path d="M6.70262 14.3672H4.26877C3.84743 14.3672 3.50439 14.7103 3.50439 15.1316V22.52C3.50439 22.9302 3.83996 23.2657 4.25013 23.2657H6.7026C6.93378 23.2657 7.1426 23.1613 7.28055 22.9973C7.39614 22.8668 7.46699 22.6915 7.46699 22.5014V15.1316C7.46699 14.7102 7.12396 14.3672 6.70262 14.3672Z" fill="white"/>
<path d="M15.871 14.5309C15.2045 14.5356 13.9805 14.5291 13.1668 14.53C12.9636 14.53 12.7986 14.3659 12.7986 14.1627V14.1534C12.7986 13.9483 12.9626 13.7842 13.1658 13.7842C13.4706 13.7852 13.8351 13.787 14.0365 13.7852C14.4364 11.0261 13.1947 9.84576 11.6762 9.49067C11.1617 9.36389 10.6229 9.80574 10.6396 10.3333V11.9441C10.6527 13.4748 9.60305 14.6596 8.21222 15.1275C8.21222 15.1275 8.21875 21.4748 8.2085 22.5532L10.0095 23.1572C10.3506 23.3642 14.4335 23.2299 14.8967 23.2654C15.5977 23.2654 16.213 22.7918 16.3919 22.1132L17.738 16.9536C18.0829 15.7726 17.0957 14.4993 15.8699 14.531L15.871 14.5309Z" fill="white"/>
<path d="M9.74926 6.00848C9.78655 6.04204 9.80146 6.09424 9.79401 6.14271L9.64859 6.99286C9.50037 7.6985 10.3253 8.29884 10.9536 7.93995L11.7143 7.54098C11.759 7.51488 11.815 7.51488 11.8597 7.54098C12.1291 7.65284 12.7332 8.07977 13.038 8.04436C13.5758 8.05648 14.0345 7.52513 13.9254 6.99288L13.78 6.14274C13.7725 6.09426 13.7875 6.04206 13.8247 6.0085L14.44 5.40447C14.975 4.9188 14.6628 3.95308 13.9403 3.87197L13.0902 3.74892C13.038 3.74147 12.997 3.71164 12.9746 3.66689L12.5942 2.89132C12.2969 2.236 11.278 2.23228 10.9797 2.89132L10.5994 3.66689C10.577 3.71164 10.5323 3.74147 10.4838 3.74892L9.62994 3.87197C9.29062 3.92417 9.01096 4.15535 8.90658 4.48347C8.79845 4.8116 8.88794 5.16583 9.13403 5.40819L9.74926 6.00848Z" fill="white"/>
<path d="M21.2119 8.63394C21.7451 8.14454 21.4366 7.18348 20.716 7.09772L19.8621 6.97467C19.8099 6.96721 19.7689 6.93738 19.7466 6.89264L19.3662 6.12079C19.0679 5.45896 18.0509 5.46175 17.7517 6.11707L17.3714 6.89263C17.349 6.93738 17.308 6.96721 17.2558 6.97467L16.4019 7.09771C16.0626 7.14991 15.7829 7.38481 15.6786 7.70922C15.5704 8.03734 15.6599 8.39157 15.906 8.63393L16.5212 9.23425C16.5585 9.2678 16.5734 9.32001 16.566 9.36848L16.4206 10.2186C16.3609 10.5579 16.4989 10.8973 16.7785 11.0986C17.0591 11.3027 17.4226 11.3251 17.7256 11.1657L18.4863 10.7667C18.531 10.7406 18.5869 10.7406 18.6317 10.7667L19.3923 11.1657C20.0197 11.5237 20.8465 10.928 20.6974 10.2186L20.552 9.36847C20.5445 9.32 20.5594 9.26779 20.5967 9.23423L21.2119 8.63394Z" fill="white"/>
<path d="M7.16557 7.0983L6.31543 6.97525C6.26323 6.9678 6.22221 6.93797 6.19984 6.89322L5.8195 6.12138C5.52214 5.4614 4.50421 5.45768 4.20498 6.12138L3.82464 6.89322C3.80227 6.93797 3.75753 6.9678 3.70905 6.97525L2.85519 7.0983C2.51587 7.1505 2.23621 7.3854 2.13183 7.71353C2.0237 8.03793 2.10946 8.39216 2.35928 8.63452L2.97451 9.23483C3.0118 9.26839 3.02671 9.3206 3.01926 9.36907L2.87384 10.2192C2.81418 10.5585 2.95214 10.8978 3.23179 11.0992C3.50959 11.3033 3.87592 11.3257 4.17889 11.1663L4.93954 10.7673C4.98429 10.7449 5.04022 10.7412 5.08123 10.7673L5.84561 11.1663C6.47482 11.5243 7.29514 10.9295 7.15066 10.2192L7.00524 9.36906C6.99779 9.32058 7.0127 9.26838 7.04999 9.23482L7.66522 8.63451C8.20122 8.14232 7.88429 7.18313 7.16557 7.0983Z" fill="white"/>
</g>
<defs>
<clipPath id="clip0_1663_6908">
<rect width="19.5682" height="21" fill="white" transform="translate(2 2.33594)"/>
</clipPath>
</defs>
</svg>
